<svg width="20" height="20" viewBox="0 0 20 20" fill="none" xmlns="http://www.w3.org/2000/svg">
<path d="M4.50444 3.62056C4.26036 3.37648 3.86464 3.37648 3.62056 3.62056C3.37648 3.86464 3.37648 4.26036 3.62056 4.50444L9.11612 10L3.62056 15.4956C3.37648 15.7396 3.37648 16.1354 3.62056 16.3794C3.86464 16.6235 4.26037 16.6235 4.50444 16.3794L10 10.8839L15.4956 16.3794C15.7396 16.6235 16.1354 16.6235 16.3794 16.3794C16.6235 16.1354 16.6235 15.7396 16.3794 15.4956L10.8839 10L16.3794 4.50444C16.6235 4.26036 16.6235 3.86464 16.3794 3.62056C16.1354 3.37648 15.7396 3.37648 15.4956 3.62056L10 9.11612L4.50444 3.62056Z" fill="#007D57"/>
</svg>
